<svg enable-background="new 0 0 1133.858 1133.861" viewBox="0 0 1133.858 1133.861" xmlns="http://www.w3.org/2000/svg"><path d="m1133.858 566.934c0 313.096-253.819 566.923-566.916 566.923-313.119.001-566.942-253.827-566.942-566.923 0-313.114 253.823-566.937 566.942-566.937 313.097 0 566.916 253.823 566.916 566.937z" fill="#090909"/><g fill="#fc0"><path d="m194.73 697.871h-13.227c-12.644 0-22.995-10.336-22.995-22.993v-226.492c0-12.648 10.351-22.997 22.995-22.997h13.227c12.642 0 22.993 10.349 22.993 22.997v226.493c0 12.656-10.352 22.992-22.993 22.992z"/><path d="m455.709 584.057h-104.625v37.365c0 14.359 10.353 23.563 23.572 23.563h87.382v32.201c0 12.648-10.345 20.685-22.993 20.685h-75.313c-39.664 0-71.858-31.609-71.858-71.848v-128.778c0-40.24 32.194-71.856 71.858-71.856h55.766c39.668 0 71.854 32.195 71.854 71.856v51.166c0 19.547-16.096 35.646-35.643 35.646zm-23.567-82.785c0-12.644-10.345-22.993-22.993-22.993h-35.064c-12.648 0-23.001 10.349-23.001 22.993v35.071h81.058z"/><path d="m575.852 697.871c-12.639 0-22.993-10.336-22.993-22.993v-342.618c0-12.639 10.353-22.997 22.993-22.997h13.225c12.648 0 23.001 10.358 23.001 22.997v365.612h-36.226z"/><path d="m714.399 697.871c-12.648 0-23.001-10.336-23.001-22.993v-342.618c0-12.639 10.353-22.997 23.001-22.997h13.223c12.639 0 23.005 10.358 23.005 22.997v365.612h-36.228z"/><path d="m977.877 329.744v33.836h-4.142v-33.836h-11.175v-3.521h26.484v3.521z"/><path d="m1023.965 363.58v-34.146h-.149l-10.447 34.146h-3.218l-10.494-34.146h-.162v34.146h-3.725v-37.356h6.416l9.519 30.217h.102l9.357-30.217h6.535v37.356z"/><path d="m999.865 423.216h-135.279c-28.323 0-51.316 22.997-51.316 51.324v172.02c0 28.327 22.993 51.311 51.316 51.311h135.279c28.332 0 51.316-22.984 51.316-51.311v-172.02c0-28.327-22.984-51.324-51.316-51.324zm27.097 89.087h-.141l-34.892 1.69-8.846 33.804-.059.153c-.358 1.3-1.524 2.279-2.938 2.367-1.46.064-2.737-.83-3.205-2.141l-.051-.134-12.354-32.742.008-.027-35.023 1.983-.179.013c-1.332.047-2.635-.745-3.146-2.08-.52-1.367-.06-2.863 1.047-3.716l.106-.081 27.344-21.826c0-.019 0-.038 0-.057l-12.614-32.684-.047-.153c-.481-1.264-.102-2.739 1.004-3.638 1.145-.922 2.716-.939 3.853-.151l.119.087 29.178 19.338-.038-.032 27.399-21.916.119-.092c1.069-.83 2.606-.926 3.776-.134 1.217.811 1.715 2.307 1.303 3.631l-.047.121-9.612 33.561 29.485 18.831.132.098c1.128.743 1.711 2.141 1.324 3.523-.353 1.408-1.609 2.353-3.005 2.404z"/><path d="m194.774 394.767h-13.223c-12.648 0-22.997-10.345-22.997-22.993v-19.884c0-12.642 10.349-22.993 22.997-22.993h13.223c12.648 0 22.991 10.352 22.991 22.993v19.885c0 12.648-10.343 22.992-22.991 22.992z"/></g><path d="m662.419 784.734c-238.468 126.25-482.25 133.308-544.5 15.726-23.949-45.232-17.523-102.312 12.997-162.61-50.075 74.977-66.179 147.999-36.903 203.295 62.254 117.574 306.037 110.524 544.507-15.734 146.74-77.689 257.255-182.423 306.071-278.894-56.395 84.436-155.867 171.341-282.172 238.217z" fill="#fff"/></svg>